<mxfile host="app.diagrams.net" agent="Mozilla/5.0 (Windows NT 10.0; Win64; x64) AppleWebKit/537.36 (KHTML, like Gecko) Chrome/127.0.0.0 Safari/537.36" version="24.7.6">
  <diagram name="Page-1" id="BWFN5VkwiLTtszJDaQzB">
    <mxGraphModel dx="1050" dy="565" grid="1" gridSize="10" guides="1" tooltips="1" connect="1" arrows="1" fold="1" page="1" pageScale="1" pageWidth="850" pageHeight="1100" math="0" shadow="0">
      <root>
        <mxCell id="0" />
        <mxCell id="1" parent="0" />
        <mxCell id="0wGi1IUg3HWWMHV7L7pv-3" value="" style="edgeStyle=orthogonalEdgeStyle;rounded=0;orthogonalLoop=1;jettySize=auto;html=1;" parent="1" source="0wGi1IUg3HWWMHV7L7pv-1" target="0wGi1IUg3HWWMHV7L7pv-2" edge="1">
          <mxGeometry relative="1" as="geometry" />
        </mxCell>
        <mxCell id="0wGi1IUg3HWWMHV7L7pv-1" value="FrontEnd" style="rounded=0;whiteSpace=wrap;html=1;" parent="1" vertex="1">
          <mxGeometry x="265" y="40" width="120" height="60" as="geometry" />
        </mxCell>
        <mxCell id="0wGi1IUg3HWWMHV7L7pv-2" value="Backend" style="rounded=0;whiteSpace=wrap;html=1;" parent="1" vertex="1">
          <mxGeometry x="465" y="40" width="120" height="60" as="geometry" />
        </mxCell>
        <mxCell id="0wGi1IUg3HWWMHV7L7pv-6" value="" style="edgeStyle=orthogonalEdgeStyle;rounded=0;orthogonalLoop=1;jettySize=auto;html=1;" parent="1" source="0wGi1IUg3HWWMHV7L7pv-4" target="0wGi1IUg3HWWMHV7L7pv-5" edge="1">
          <mxGeometry relative="1" as="geometry" />
        </mxCell>
        <mxCell id="0wGi1IUg3HWWMHV7L7pv-4" value="GHA" style="rounded=0;whiteSpace=wrap;html=1;" parent="1" vertex="1">
          <mxGeometry x="165" y="220" width="120" height="60" as="geometry" />
        </mxCell>
        <mxCell id="0wGi1IUg3HWWMHV7L7pv-8" value="" style="edgeStyle=orthogonalEdgeStyle;rounded=0;orthogonalLoop=1;jettySize=auto;html=1;" parent="1" source="0wGi1IUg3HWWMHV7L7pv-5" target="0wGi1IUg3HWWMHV7L7pv-7" edge="1">
          <mxGeometry relative="1" as="geometry" />
        </mxCell>
        <mxCell id="0wGi1IUg3HWWMHV7L7pv-5" value="Web-&lt;span style=&quot;background-color: initial;&quot;&gt;Hook&lt;/span&gt;" style="rounded=0;whiteSpace=wrap;html=1;" parent="1" vertex="1">
          <mxGeometry x="365" y="220" width="120" height="60" as="geometry" />
        </mxCell>
        <mxCell id="0wGi1IUg3HWWMHV7L7pv-7" value="DB&lt;div&gt;ZapRunOutbox&lt;/div&gt;" style="rounded=0;whiteSpace=wrap;html=1;" parent="1" vertex="1">
          <mxGeometry x="565" y="220" width="120" height="60" as="geometry" />
        </mxCell>
        <mxCell id="0wGi1IUg3HWWMHV7L7pv-13" value="Push event" style="edgeStyle=orthogonalEdgeStyle;rounded=0;orthogonalLoop=1;jettySize=auto;html=1;" parent="1" source="0wGi1IUg3HWWMHV7L7pv-9" target="0wGi1IUg3HWWMHV7L7pv-12" edge="1">
          <mxGeometry relative="1" as="geometry" />
        </mxCell>
        <mxCell id="0wGi1IUg3HWWMHV7L7pv-9" value="Processor" style="rounded=0;whiteSpace=wrap;html=1;" parent="1" vertex="1">
          <mxGeometry x="165" y="510" width="120" height="60" as="geometry" />
        </mxCell>
        <mxCell id="0wGi1IUg3HWWMHV7L7pv-11" value="Long Poll : ZapRunOutbox" style="edgeStyle=orthogonalEdgeStyle;rounded=0;orthogonalLoop=1;jettySize=auto;html=1;" parent="1" source="0wGi1IUg3HWWMHV7L7pv-10" target="0wGi1IUg3HWWMHV7L7pv-9" edge="1">
          <mxGeometry relative="1" as="geometry" />
        </mxCell>
        <mxCell id="0wGi1IUg3HWWMHV7L7pv-10" value="DB" style="rounded=0;whiteSpace=wrap;html=1;" parent="1" vertex="1">
          <mxGeometry x="165" y="360" width="120" height="60" as="geometry" />
        </mxCell>
        <mxCell id="0wGi1IUg3HWWMHV7L7pv-12" value="Kafka : zap-events" style="rounded=0;whiteSpace=wrap;html=1;" parent="1" vertex="1">
          <mxGeometry x="425" y="510" width="120" height="60" as="geometry" />
        </mxCell>
        <mxCell id="0wGi1IUg3HWWMHV7L7pv-18" style="edgeStyle=orthogonalEdgeStyle;rounded=0;orthogonalLoop=1;jettySize=auto;html=1;" parent="1" source="0wGi1IUg3HWWMHV7L7pv-14" edge="1">
          <mxGeometry relative="1" as="geometry">
            <mxPoint x="470" y="820" as="targetPoint" />
          </mxGeometry>
        </mxCell>
        <mxCell id="0wGi1IUg3HWWMHV7L7pv-22" style="edgeStyle=orthogonalEdgeStyle;rounded=0;orthogonalLoop=1;jettySize=auto;html=1;" parent="1" source="0wGi1IUg3HWWMHV7L7pv-14" edge="1">
          <mxGeometry relative="1" as="geometry">
            <mxPoint x="470" y="990" as="targetPoint" />
          </mxGeometry>
        </mxCell>
        <mxCell id="0wGi1IUg3HWWMHV7L7pv-14" value="Worker" style="rounded=0;whiteSpace=wrap;html=1;" parent="1" vertex="1">
          <mxGeometry x="160" y="880" width="120" height="60" as="geometry" />
        </mxCell>
        <mxCell id="0wGi1IUg3HWWMHV7L7pv-16" value="Consumes : zap-events" style="edgeStyle=orthogonalEdgeStyle;rounded=0;orthogonalLoop=1;jettySize=auto;html=1;" parent="1" source="0wGi1IUg3HWWMHV7L7pv-15" target="0wGi1IUg3HWWMHV7L7pv-14" edge="1">
          <mxGeometry relative="1" as="geometry" />
        </mxCell>
        <mxCell id="0wGi1IUg3HWWMHV7L7pv-15" value="Kafka : zap-events" style="rounded=0;whiteSpace=wrap;html=1;" parent="1" vertex="1">
          <mxGeometry x="160" y="720" width="120" height="60" as="geometry" />
        </mxCell>
        <mxCell id="0wGi1IUg3HWWMHV7L7pv-17" value="Processes the Action" style="text;html=1;align=center;verticalAlign=middle;resizable=0;points=[];autosize=1;strokeColor=none;fillColor=none;" parent="1" vertex="1">
          <mxGeometry x="150" y="940" width="140" height="30" as="geometry" />
        </mxCell>
        <mxCell id="0wGi1IUg3HWWMHV7L7pv-21" style="edgeStyle=orthogonalEdgeStyle;rounded=0;orthogonalLoop=1;jettySize=auto;html=1;entryX=1;entryY=0.5;entryDx=0;entryDy=0;" parent="1" source="0wGi1IUg3HWWMHV7L7pv-20" target="0wGi1IUg3HWWMHV7L7pv-15" edge="1">
          <mxGeometry relative="1" as="geometry" />
        </mxCell>
        <mxCell id="0wGi1IUg3HWWMHV7L7pv-20" value="Push next action to same kafka topic" style="text;html=1;align=center;verticalAlign=middle;resizable=0;points=[];autosize=1;strokeColor=none;fillColor=none;" parent="1" vertex="1">
          <mxGeometry x="365" y="780" width="220" height="30" as="geometry" />
        </mxCell>
        <mxCell id="0wGi1IUg3HWWMHV7L7pv-26" value="" style="edgeStyle=orthogonalEdgeStyle;rounded=0;orthogonalLoop=1;jettySize=auto;html=1;" parent="1" source="0wGi1IUg3HWWMHV7L7pv-23" target="0wGi1IUg3HWWMHV7L7pv-25" edge="1">
          <mxGeometry relative="1" as="geometry" />
        </mxCell>
        <mxCell id="0wGi1IUg3HWWMHV7L7pv-23" value="If Last Action Then Stop" style="text;html=1;align=center;verticalAlign=middle;resizable=0;points=[];autosize=1;strokeColor=none;fillColor=none;" parent="1" vertex="1">
          <mxGeometry x="400" y="990" width="150" height="30" as="geometry" />
        </mxCell>
        <mxCell id="0wGi1IUg3HWWMHV7L7pv-25" value="Finished Zap Run" style="whiteSpace=wrap;html=1;" parent="1" vertex="1">
          <mxGeometry x="415" y="1085" width="120" height="60" as="geometry" />
        </mxCell>
        <mxCell id="no5V3kSyCaCKcfA3TjVm-1" value="User action handle" style="text;html=1;align=center;verticalAlign=middle;resizable=0;points=[];autosize=1;strokeColor=none;fillColor=none;" vertex="1" parent="1">
          <mxGeometry x="365" y="130" width="120" height="30" as="geometry" />
        </mxCell>
        <mxCell id="no5V3kSyCaCKcfA3TjVm-2" value="Hooks server" style="text;html=1;align=center;verticalAlign=middle;resizable=0;points=[];autosize=1;strokeColor=none;fillColor=none;" vertex="1" parent="1">
          <mxGeometry x="375" y="310" width="90" height="30" as="geometry" />
        </mxCell>
        <mxCell id="no5V3kSyCaCKcfA3TjVm-3" value="Processer flow" style="text;html=1;align=center;verticalAlign=middle;resizable=0;points=[];autosize=1;strokeColor=none;fillColor=none;" vertex="1" parent="1">
          <mxGeometry x="315" y="620" width="100" height="30" as="geometry" />
        </mxCell>
        <mxCell id="no5V3kSyCaCKcfA3TjVm-4" value="Worker Logic" style="text;html=1;align=center;verticalAlign=middle;resizable=0;points=[];autosize=1;strokeColor=none;fillColor=none;" vertex="1" parent="1">
          <mxGeometry x="365" y="1178" width="90" height="30" as="geometry" />
        </mxCell>
      </root>
    </mxGraphModel>
  </diagram>
</mxfile>
